<?xml version="1.0" encoding="UTF-8" standalone="yes"?>
<!DOCTYPE svg PUBLIC "-//W3C//DTD SVG 1.1//EN" "http://www.w3.org/Graphics/SVG/1.1/DTD/svg11.dtd">

<svg xmlns="http://www.w3.org/2000/svg" xmlns:xlink="http://www.w3.org/1999/xlink" width="200" height="200">

<rect x="0" y="0" width="200" height="200" rx="35" fill="#D60058"/>
<rect x="15" y="15" width="170" height="170" rx="20" fill="#ffffff"/>

<path id="L" fill="#D60058" d="M100,100 m -37.57 -46.76 l 0 51.27 c 0.09 14.58 3.32 25.27 9.72 32.06 c 6.39 6.79 15.43 10.15 27.1 10.07 c 12.1 0.03 21.48 -3.4 28.16 -10.3 c 6.68 -6.89 10.06 -17.41 10.16 -31.57 l 0 -51.54 l -20.73 0 l 0 52.91 c -0.02 8.09 -1.48 14.1 -4.36 18.02 c -2.89 3.92 -7.07 5.87 -12.55 5.85 c -5.35 -0.01 -9.45 -2.01 -12.31 -6 c -2.86 -3.99 -4.3 -9.95 -4.33 -17.86 l 0 -52.91 l -20.86 0"/>

</svg>
