<?xml version="1.0" encoding="utf-8"?>
<!-- Generator: Adobe Illustrator 21.1.0, SVG Export Plug-In . SVG Version: 6.00 Build 0)  -->
<svg version="1.1" id="Calque_2" xmlns="http://www.w3.org/2000/svg" xmlns:xlink="http://www.w3.org/1999/xlink" x="0px" y="0px"
	 viewBox="0 0 476.3 477.2" style="enable-background:new 0 0 476.3 477.2;" xml:space="preserve">
<style type="text/css">
	.st0{fill:#E3B3D1;}
</style>
<g>
	<path class="st0" d="M79.9,3.7C36.2,3.7,0.5,39.4,0.5,83.2v314.5c0,43.8,35.6,79.5,79.4,79.5h317c43.8,0,79.4-35.7,79.4-79.5V83.2
		c0-43.8-35.6-79.5-79.4-79.5H79.9z M33.3,397.7V83.2c0-25.8,20.9-46.8,46.6-46.8h317c25.8,0,46.7,21,46.7,46.8v314.5
		c0,25.8-20.9,46.8-46.7,46.8h-317C54.2,444.4,33.3,423.5,33.3,397.7"/>
	<path class="st0" d="M153.6,132.3c16.3-3,40.3-5,67.6-5c33.4,0,56.6,5,72.6,18c13.7,10.7,21,26.3,21,47c0,28.3-20.3,48-39.7,55v1
		c15.7,6.4,24.4,21,30,41.7c7,25.6,13.6,55,17.9,63.6h-51.9c-3.4-6.3-9-24.7-15.3-52.3c-6.4-28.3-16-35.7-37-36h-15v88.3h-50.3
		V132.3z M203.9,228.6h19.9c25.4,0,40.4-12.7,40.4-32.4c0-20.3-14-30.9-37.3-30.9c-12.3,0-19.3,0.6-23,1.6V228.6z"/>
</g>
</svg>
