<?xml version="1.0" encoding="UTF-8" standalone="yes"?>
<!DOCTYPE svg PUBLIC "-//W3C//DTD SVG 1.1//EN" "http://www.w3.org/Graphics/SVG/1.1/DTD/svg11.dtd">

<svg xmlns="http://www.w3.org/2000/svg" xmlns:xlink="http://www.w3.org/1999/xlink" width="200" height="200">

<rect x="0" y="0" width="200" height="200" rx="35" fill="#00A092"/>
<rect x="15" y="15" width="170" height="170" rx="20" fill="#ffffff"/>

<path id="L" fill="#00A092" d="M100,100 m -19.95 45.95 l 0 -27.68 c 0 -7.47 -0.07 -14.51 -0.2 -21.12 c -0.14 -6.6 -0.34 -12.93 -0.61 -18.97 l 0.41 -0.14 c 2.29 5.45 4.83 10.98 7.62 16.59 c 2.79 5.61 5.57 10.89 8.34 15.87 l 19.64 35.45 l 21.82 0 l 0 -91.91 l -19.09 0 l 0 26.73 c -0.01 6.93 0.11 13.56 0.38 19.89 c 0.26 6.33 0.73 12.52 1.4 18.56 l -0.41 0 c -2.07 -5.24 -4.4 -10.58 -6.99 -16.01 c -2.59 -5.43 -5.26 -10.59 -8.01 -15.49 l -19.09 -33.68 l -24.27 0 l 0 91.91 l 19.09 0"/>

</svg>
