<?xml version="1.0" encoding="UTF-8" standalone="yes"?>
<!DOCTYPE svg PUBLIC "-//W3C//DTD SVG 1.1//EN" "http://www.w3.org/Graphics/SVG/1.1/DTD/svg11.dtd">

<svg xmlns="http://www.w3.org/2000/svg" xmlns:xlink="http://www.w3.org/1999/xlink" width="200" height="200">

<rect x="0" y="0" width="200" height="200" rx="35" fill="#050D9E"/>
<rect x="15" y="15" width="170" height="170" rx="20" fill="#ffffff"/>

<path id="train" fill="#050D9E" d="M100,100 m -48.8 65.97 c 0.27 -0.44 4.97 -7.44 10.44 -15.54 c 5.48 -8.1 9.99 -15.19 10.04 -15.74 c 0.05 -0.63 -0.91 -1.34 -2.57 -1.9 c -3.84 -1.3 -7.65 -4.86 -9.73 -9.09 l -1.81 -3.69 l 0 -36.77 c 0 -35.96 0.03 -36.84 1.35 -39.68 c 1.96 -4.22 4.37 -6.77 8.15 -8.66 l 3.34 -1.66 l 28.99 0 c 20.36 0 29.75 0.23 31.52 0.76 c 3.21 0.96 7.89 5.06 9.74 8.51 c 1.42 2.66 1.42 2.7 1.42 40.73 c 0 38.03 0 38.07 -1.42 40.73 c -1.84 3.44 -6.49 7.51 -9.82 8.61 c -1.66 0.55 -2.62 1.26 -2.62 1.94 c 0 0.59 4.65 7.93 10.32 16.31 c 5.68 8.38 10.32 15.41 10.32 15.63 c 0 0.21 -2.51 0.31 -5.58 0.2 l -5.58 -0.19 l -7.5 -10.97 l -7.5 -10.97 l -21.6 -0.18 c -11.88 -0.1 -22.19 -0.04 -22.91 0.14 c -0.81 0.2 -4.15 4.53 -8.71 11.3 l -7.4 10.98 l -5.68 0.01 c -4.38 0.01 -5.57 -0.18 -5.2 -0.8 m 27.93 -56.91 c 1 -0.52 2.62 -1.89 3.59 -3.03 c 1.56 -1.85 1.73 -2.49 1.47 -5.61 c -0.25 -3.04 -0.61 -3.82 -2.6 -5.64 c -4.34 -3.97 -9.94 -3.26 -13.26 1.68 c -4.67 6.94 3.45 16.41 10.81 12.6 m 48.89 -0.13 c 4.48 -2.12 6.19 -7.08 4.01 -11.59 c -2.59 -5.36 -9 -6.83 -13.44 -3.09 c -4.93 4.15 -3.75 12.28 2.14 14.84 c 2.68 1.17 4.58 1.13 7.29 -0.16 m -0.48 -30.38 c 1.23 -0.62 2.9 -2.11 3.71 -3.32 c 1.35 -2.02 1.46 -2.91 1.46 -11.3 c 0 -10.81 -0.66 -12.73 -5.21 -15.08 c -2.85 -1.47 -2.89 -1.47 -28.45 -1.29 c -24.7 0.18 -25.66 0.23 -27.38 1.51 c -4.05 3.03 -4.42 4.12 -4.63 13.71 c -0.18 8.16 -0.08 9.04 1.29 11.68 c 2.74 5.27 2.38 5.21 31.47 5.21 c 22.98 0 25.71 -0.11 27.74 -1.13"/>

</svg>
