<svg xmlns="http://www.w3.org/2000/svg" viewBox="0 0 471.89 469.54"><title>ligne</title><g id="ea38cf08-a903-4f26-b9b6-e17cb2a5f04c" data-name="Calque 2"><g id="3915cb28-a82d-444d-9769-05e32d089da8" data-name="Calque 1"><path d="M78.75,0A78.9,78.9,0,0,0,0,78.86v311.9a78.92,78.92,0,0,0,78.75,78.79h314.4a78.92,78.92,0,0,0,78.74-78.79V78.86A78.9,78.9,0,0,0,393.16,0ZM32.51,390.75V78.86A46.3,46.3,0,0,1,78.75,32.51h314.4A46.39,46.39,0,0,1,439.4,78.86v311.9a46.4,46.4,0,0,1-46.25,46.39H78.75a46.32,46.32,0,0,1-46.25-46.39" fill="#edaa00"/><path d="M155.95,127.26c15.53-2.61,37.41-4.68,68.12-4.68,31.06,0,53.52,6,68.36,18.18,14.21,11,23.4,29.4,23.4,51.25,0,22.11-6.93,40.67-20.07,52.83-17.21,15.89-43,23.56-72.66,23.56a91.39,91.39,0,0,1-17.21-1.31v80H155.95Zm49.94,101.12c4.31.93,9.57,1.31,16.85,1.31,26.76,0,43.27-13.54,43.27-36C266,173.13,252.14,161,226.7,161c-10.29,0-17.21.72-20.81,1.69Z" fill="#edaa00"/></g></g></svg>