<svg xmlns="http://www.w3.org/2000/svg" viewBox="0 0 479.87 477.45"><title>ligne</title><g id="a079538b-81bd-49ad-90ed-e2580f4b1abc" data-name="Calque 2"><g id="c55cbeb0-7d26-4b38-93af-17a071a18c3c" data-name="Calque 1"><path d="M80.11,0A80.23,80.23,0,0,0,0,80.25V397.4a80.19,80.19,0,0,0,80.11,80.06H399.82a80.18,80.18,0,0,0,80-80.06V80.25A80.22,80.22,0,0,0,399.82,0ZM33,397.4V80.25A47.14,47.14,0,0,1,80.11,33H399.82a47.16,47.16,0,0,1,47,47.2V397.4a47.16,47.16,0,0,1-47,47.15H80.11A47.14,47.14,0,0,1,33,397.4" fill="#7684bc"/><polygon points="169.43 125.55 220.46 125.55 220.46 309.06 310.5 309.06 310.5 352.04 169.43 352.04 169.43 125.55" fill="#7684bc"/></g></g></svg>