<svg xmlns="http://www.w3.org/2000/svg" viewBox="0 0 474.59 472.19"><title>ligne</title><g id="219c7a32-709f-431d-96d6-44114073dc54" data-name="Calque 2"><g id="fe16d489-f8d0-47d2-a3ca-c66dac6147f2" data-name="Calque 1"><polygon points="195.63 124.08 195.63 210.47 279.03 210.47 279.03 124.08 329.56 124.08 329.56 348.05 279.03 348.05 279.03 254.65 195.63 254.65 195.63 348.05 145.08 348.05 145.08 124.08 195.63 124.08" fill="#8a4b52"/><path d="M79.23,0A79.36,79.36,0,0,0,0,79.22V393a79.38,79.38,0,0,0,79.23,79.23H395.41A79.36,79.36,0,0,0,474.59,393V79.22A79.35,79.35,0,0,0,395.41,0ZM32.69,393V79.22A46.65,46.65,0,0,1,79.23,32.6H395.41A46.61,46.61,0,0,1,441.9,79.22V393a46.6,46.6,0,0,1-46.49,46.61H79.23A46.65,46.65,0,0,1,32.69,393" fill="#8a4b52"/></g></g></svg>