<svg xmlns="http://www.w3.org/2000/svg" viewBox="0 0 471.49 469.18"><title>ligne</title><g id="13c64cfd-df5f-4b7e-8cf4-550df4bbbce6" data-name="Calque 2"><g id="f016b711-af63-446b-9876-306fabbf3b2a" data-name="Calque 1"><path d="M231.17,121.57h50.17V262.21c0,63.42-30.39,85.5-78.93,85.5-11.89,0-27-2-37-5.22l5.62-40.73a80.63,80.63,0,0,0,25.73,4.06c21.14,0,34.38-9.66,34.38-44Z" fill="#b6bd00"/><path d="M78.7,0A78.82,78.82,0,0,0,0,78.82V390.49a78.73,78.73,0,0,0,78.7,78.68H392.85a78.72,78.72,0,0,0,78.64-78.68V78.82A78.81,78.81,0,0,0,392.85,0ZM32.43,390.49V78.82A46.33,46.33,0,0,1,78.7,32.48H392.85a46.37,46.37,0,0,1,46.22,46.34V390.49a46.37,46.37,0,0,1-46.22,46.33H78.7a46.34,46.34,0,0,1-46.27-46.33" fill="#b6bd00"/></g></g></svg>