<?xml version="1.0" encoding="iso-8859-1"?>
<!-- Generator: Adobe Illustrator 14.0.0, SVG Export Plug-In . SVG Version: 6.00 Build 43363)  -->
<!DOCTYPE svg PUBLIC "-//W3C//DTD SVG 1.1//EN" "http://www.w3.org/Graphics/SVG/1.1/DTD/svg11.dtd">
<svg version="1.1" id="Premier_plan" xmlns="http://www.w3.org/2000/svg" xmlns:xlink="http://www.w3.org/1999/xlink" x="0px"
	 y="0px" width="92px" height="92px" viewBox="0 0 92 92" style="enable-background:new 0 0 92 92;" xml:space="preserve">
<g>
	<g>
		<path style="fill-rule:evenodd;clip-rule:evenodd;fill:#FF1400;" d="M46,92C20.575,92,0,71.463,0,46.083C0,20.537,20.575,0,46,0
			s46,20.537,46,46.083C92,71.463,71.426,92,46,92z M46,6.846c-21.578,0-39.142,17.531-39.142,39.237
			c0,21.54,17.563,39.071,39.142,39.071c21.578,0,39.142-17.531,39.142-39.071C85.143,24.377,67.578,6.846,46,6.846z"/>
		<path style="fill-rule:evenodd;clip-rule:evenodd;fill:#FF1400;" d="M66.109,68.353L50.814,25.351H40.517L25.284,68.353h9.384
			l2.681-8.15h15.903l2.682,8.15H66.109z M50.937,53.086H39.725L44.173,39.4c0.548-1.702,1.097-3.953,1.097-5.413h0.122
			c0,1.339,0.487,3.589,1.097,5.413L50.937,53.086z"/>
	</g>
</g>
</svg>
