<svg xmlns="http://www.w3.org/2000/svg" viewBox="0 0 469.08 469.04"><title>ligne</title><g id="06670bad-7372-4730-a740-b43727172495" data-name="Calque 2"><g id="3708155d-8721-412e-add1-a4e40d9211f7" data-name="Calque 1"><path d="M234.54,0C105,0,0,105,0,234.5S105,469,234.54,469s234.53-105,234.53-234.53S364.08,0,234.54,0Zm0,433.4c-109.85,0-198.89-89-198.89-198.9s89-198.88,198.89-198.88,198.9,89.05,198.9,198.88S344.38,433.4,234.54,433.4Z" fill="#d582b0"/><polygon points="302.48 349.03 302.48 310.06 211.86 310.06 211.86 253.21 294.89 253.21 294.89 215.85 211.86 215.85 211.86 171.48 297.78 171.48 297.78 132.43 163.72 132.43 163.72 349.03 302.48 349.03" fill="#d582b0" fill-rule="evenodd"/></g></g></svg>