<svg xmlns="http://www.w3.org/2000/svg" viewBox="0 0 470.95 471.7"><title>ligne</title><g id="dcbe0132-ca23-4956-b9c8-e335849c17f0" data-name="Calque 2"><g id="4796cc48-df36-43d3-964c-a399842fdad9" data-name="Calque 1"><path d="M235.51,471.7C105.28,471.7,0,366.42,0,236.4,0,105.34,105.28,0,235.51,0S471,105.34,471,236.4C471,366.42,365.67,471.7,235.51,471.7Zm0-436.52C124.93,35.18,35,124.91,35,236.4c0,110.3,89.91,200.22,200.49,200.22S435.93,346.71,435.93,236.4C435.93,124.91,346,35.18,235.51,35.18Z" fill="#f9d500" fill-rule="evenodd"/><path d="M314.29,340.17l-12.57-37.72a90.92,90.92,0,0,1-44.21,11.78c-34.69,0-64.92-26.82-64.92-72.82,0-34.85,15.61-75,61.47-75,14,0,30,4.29,44.35,12.11l15.88-40.26c-15.88-7.17-35.92-12.73-63.13-12.73-73.8,0-109,55.68-109,117.21,0,64.77,42.1,112.44,109,112.44C272.8,355.21,298.42,348.13,314.29,340.17Z" fill="#f9d500" fill-rule="evenodd"/></g></g></svg>