<?xml version="1.0" encoding="utf-8"?>
<!-- Generator: Adobe Illustrator 14.0.0, SVG Export Plug-In . SVG Version: 6.00 Build 43363)  -->
<!DOCTYPE svg PUBLIC "-//W3C//DTD SVG 1.1//EN" "http://www.w3.org/Graphics/SVG/1.1/DTD/svg11.dtd">
<svg version="1.1" xmlns="http://www.w3.org/2000/svg" xmlns:xlink="http://www.w3.org/1999/xlink" x="0px" y="0px" width="160px"
	 height="160px" viewBox="0 0 160 160" enable-background="new 0 0 160 160" xml:space="preserve">
<g id="Temps_d_x27_attente">
</g>
<g id="Calque_5">
</g>
<g id="Ardoise">
	<path fill="#0A0082" d="M160,80.396C160.002,36,122.805,0,80.203,0C35.995,0-0.005,36.002,0,80.398
		C-0.005,124.201,35.995,160.003,80.203,160C124.399,160.003,160,124.6,160,80.396z M148.999,80.396
		c0,37.605-30.993,68.604-68.792,68.604c-38.009,0-69.204-30.807-69.204-68.602c0-38.199,31.196-69.601,69.199-69.599
		C118.002,10.798,148.997,42.4,148.999,80.396z M137.402,67.595c0-10.794-7.999-15.797-15.8-15.797h-15.001
		c-2.797,0-4.396,2.202-4.394,4.604v46.995c0.002,2.798,2.793,4.203,5.393,4.203c2.999,0,5.405-1.405,5.405-4.203V85.203h4.6
		l9,20.195c0.796,1.602,2.196,2.202,3.801,2.202c3.194,0,7.799-3.006,5.998-6.6L127.804,83
		C133.001,80.398,137.402,75.803,137.402,67.595z M96.801,102.397c0-2.394-1.597-5.001-4.4-5.001l-15.196,0.002l0.005-13.8h12.589
		c2.8,0,4.402-2.399,4.402-4.597c0-2.403-1.598-4.603-4.402-4.603l-12.589-0.003l-0.005-12.596l13.998-0.002
		c2.801,0,4.397-2.798,4.397-4.998c0-2.399-1.598-5.003-4.399-5.003H70.802c-2.799,0-4.402,2.205-4.402,4.602l-0.001,46.796
		c0.001,2.804,2.809,4.206,5.4,4.206H92.4C95.204,107.399,96.801,104.598,96.801,102.397z M60.002,67.595
		c0-10.794-8.001-15.797-15.801-15.797H29.206c-2.799,0-4.399,2.202-4.403,4.602l0.002,46.998c0,2.798,2.798,4.203,5.401,4.203
		c2.997,0,5.403-1.405,5.403-4.203V85.2h4.596l8.996,20.198c0.8,1.604,2.2,2.199,3.801,2.202c3.198-0.003,7.802-3.003,5.999-6.603
		L50.406,83C55.597,80.398,60.004,75.801,60.002,67.595z M126.201,68.801c-0.003,6.798-6.204,8.402-9.999,8.399h-3.197
		l-0.004-16.203h3.801C121.801,60.997,126.201,63.198,126.201,68.801z M48.796,68.801c0.003,6.798-6.195,8.399-9.994,8.402
		l-3.2-0.003l0.007-16.203l3.788-0.003C44.401,60.997,48.799,63.198,48.796,68.801z"/>
</g>
</svg>
